<svg width="512" height="512" viewBox="0 0 602 602" fill="none" xmlns="http://www.w3.org/2000/svg">
    <g filter="url(#filter0_d_0_1)">
        <path d="M482.02 478.019C438.104 521.936 379.72 548.389 317.746 552.452C255.772 556.514 194.434 537.908 145.161 500.101C95.8874 462.293 62.0386 407.862 49.9207 346.949C37.8028 286.036 48.2422 222.794 79.2941 169.007C110.346 115.22 159.892 74.555 218.703 54.5891C277.513 34.6232 341.576 36.7176 398.956 60.4823C456.337 84.2469 503.122 128.061 530.594 183.762C558.066 239.462 564.352 303.25 548.282 363.242L505.261 351.718C518.536 302.163 513.344 249.472 490.651 203.462C467.958 157.452 429.313 121.26 381.915 101.63C334.517 81.9997 281.599 80.2696 233.02 96.7621C184.441 113.254 143.515 146.845 117.865 191.274C92.2154 235.704 83.5921 287.943 93.6018 338.259C103.612 388.575 131.572 433.537 172.273 464.767C212.974 495.997 263.64 511.366 314.833 508.01C366.025 504.654 414.251 482.803 450.527 446.527L482.02 478.019Z" fill="#396DEF"/>
    </g>
    <path d="M290.323 96.1546C293.08 85.0107 308.921 85.0107 311.679 96.1545L353.065 263.418C353.564 265.431 354.621 267.263 356.116 268.702L480.277 388.175C488.549 396.135 480.628 409.854 469.599 406.67L304.051 358.881C302.058 358.305 299.943 358.305 297.95 358.881L132.402 406.67C121.373 409.854 113.452 396.135 121.724 388.175L245.885 268.702C247.38 267.263 248.437 265.431 248.936 263.418L290.323 96.1546Z" fill="#00C0E8"/>
    <g filter="url(#filter1_d_0_1)">
        <path d="M301.153 296.912C300.705 296.912 300.353 296.848 300.097 296.72C299.521 296.464 299.233 296.336 299.233 296.336C299.233 296.272 299.521 296.048 300.097 295.664C300.545 295.408 301.057 295.312 301.633 295.376C302.273 295.44 302.721 295.44 302.977 295.376C304.513 295.056 306.369 294.608 308.545 294.032C310.721 293.456 313.249 292.304 316.129 290.576L319.873 288.368C320.193 288.176 320.417 288.208 320.545 288.464C320.417 288.528 320.353 288.688 320.353 288.944C320.801 288.944 321.057 288.784 321.121 288.464C321.249 288.08 321.377 287.728 321.505 287.408H321.601L323.713 286.064C324.033 286 324.321 286.032 324.577 286.16C324.897 286.288 325.185 286.256 325.441 286.064C325.313 285.808 325.185 285.648 325.057 285.584C324.929 285.456 324.993 285.296 325.249 285.104L325.633 284.816C326.145 284.496 326.593 284.272 326.977 284.144C327.425 283.952 327.745 283.6 327.937 283.088C329.217 281.936 330.305 280.784 331.201 279.632C332.097 278.48 332.545 277.392 332.545 276.368C332.545 275.28 331.937 274.352 330.721 273.584C329.569 272.752 327.489 272.144 324.481 271.76L323.713 271.664C323.265 271.6 322.849 271.536 322.465 271.472C322.081 271.408 321.697 271.28 321.313 271.088C321.377 271.344 321.249 271.472 320.929 271.472C320.033 271.408 319.137 271.376 318.241 271.376C317.345 271.312 316.481 271.28 315.649 271.28C314.241 271.28 312.929 271.312 311.713 271.376C310.561 271.44 309.729 271.504 309.217 271.568L306.049 271.952C305.665 271.824 305.281 271.888 304.897 272.144H304.801C304.353 272.144 303.905 272.208 303.457 272.336C303.009 272.4 302.529 272.496 302.017 272.624C301.761 272.688 301.473 272.752 301.153 272.816C300.833 272.816 300.513 272.88 300.193 273.008L298.273 273.392C297.825 273.712 297.249 273.872 296.545 273.872H296.449L294.625 274.352H294.529C294.273 274.352 294.049 274.224 293.857 273.968C293.665 273.648 293.537 273.36 293.473 273.104C293.409 273.488 293.313 273.904 293.185 274.352C293.057 274.8 292.833 275.024 292.513 275.024L289.825 275.888C289.569 275.952 289.281 275.984 288.961 275.984C288.641 275.984 288.321 275.984 288.001 275.984C287.681 275.984 287.425 276.016 287.233 276.08C287.041 276.144 286.913 276.304 286.849 276.56C286.849 276.752 286.753 276.912 286.561 277.04C286.305 277.296 285.985 277.488 285.601 277.616C285.217 277.68 284.865 277.776 284.545 277.904H284.449C284.321 277.904 284.129 277.84 283.873 277.712C283.681 277.584 283.521 277.552 283.393 277.616C283.329 277.68 283.265 277.84 283.201 278.096C283.137 278.352 283.041 278.512 282.913 278.576V278.672C282.529 278.8 282.113 278.96 281.665 279.152C281.217 279.344 280.801 279.536 280.417 279.728C280.033 279.92 279.585 280.144 279.073 280.4C278.625 280.592 278.241 280.72 277.921 280.784C277.793 280.784 277.729 280.656 277.729 280.4C277.793 280.144 277.761 280.08 277.633 280.208C277.249 280.4 276.865 280.752 276.481 281.264C276.097 281.776 275.745 282.128 275.425 282.32C275.105 282.576 274.753 282.704 274.369 282.704C274.049 282.704 273.729 282.832 273.409 283.088C273.217 283.28 273.025 283.6 272.833 284.048C272.705 284.432 272.545 284.72 272.353 284.912C271.841 285.424 271.329 286.032 270.817 286.736C270.753 286.864 270.657 286.992 270.529 287.12C270.401 287.248 270.337 287.408 270.337 287.6H270.241C269.857 288.368 269.665 289.104 269.665 289.808C269.665 291.216 270.177 292.24 271.201 292.88C272.289 293.52 273.505 294 274.849 294.32C275.105 294.384 275.329 294.48 275.521 294.608C275.777 294.736 276.033 294.768 276.289 294.704C276.545 294.576 276.769 294.512 276.961 294.512C277.281 294.512 277.537 294.64 277.729 294.896L279.169 295.184C279.937 295.376 280.321 295.568 280.321 295.76C280.321 295.888 280.129 296.016 279.745 296.144C279.425 296.208 279.105 296.24 278.785 296.24C277.633 296.24 276.225 296.016 274.561 295.568C272.897 295.056 271.393 294.32 270.049 293.36C268.705 292.4 267.937 291.152 267.745 289.616C267.745 289.552 267.649 289.392 267.457 289.136C267.329 288.88 267.233 288.656 267.169 288.464C266.977 287.888 266.881 287.312 266.881 286.736C266.881 285.648 267.105 284.624 267.553 283.664C268.065 282.704 268.737 281.808 269.569 280.976C269.889 280.656 270.177 280.432 270.433 280.304C270.753 280.176 271.105 279.984 271.489 279.728C271.873 279.472 272.065 279.248 272.065 279.056C272.065 278.864 272.257 278.64 272.641 278.384C273.153 278.064 273.857 277.68 274.753 277.232C275.713 276.784 276.449 276.432 276.961 276.176C277.345 276.176 277.697 276.016 278.017 275.696C279.297 275.12 280.641 274.608 282.049 274.16C283.457 273.648 284.865 273.168 286.273 272.72C286.529 272.656 286.753 272.592 286.945 272.528C287.137 272.464 287.329 272.432 287.521 272.432C287.777 272.432 288.033 272.528 288.289 272.72C288.289 272.592 288.257 272.496 288.193 272.432C288.193 272.304 288.257 272.208 288.385 272.144C289.985 271.632 291.553 271.152 293.089 270.704C294.689 270.192 296.257 269.936 297.793 269.936H297.889C298.017 269.936 298.145 269.904 298.273 269.84C298.465 269.776 298.625 269.744 298.753 269.744H298.849L299.521 269.648C299.905 269.84 300.289 269.776 300.673 269.456C302.401 269.136 304.001 268.912 305.473 268.784C306.945 268.592 308.193 268.496 309.217 268.496H309.601C309.921 268.496 310.177 268.464 310.369 268.4H311.329C311.521 268.336 311.713 268.336 311.905 268.4C312.161 268.4 312.353 268.4 312.481 268.4H312.577C313.345 268.4 314.145 268.432 314.977 268.496C315.873 268.496 316.769 268.496 317.665 268.496H317.761C318.017 268.496 318.209 268.592 318.337 268.784C318.529 268.912 318.753 268.848 319.009 268.592C320.737 268.656 322.465 268.848 324.193 269.168C325.473 269.36 326.945 269.744 328.609 270.32C330.337 270.896 331.841 271.792 333.121 273.008C334.401 274.16 335.041 275.792 335.041 277.904C335.041 278.928 334.913 279.856 334.657 280.688C334.465 281.456 334.081 282.16 333.505 282.8C332.993 283.44 332.385 284.08 331.681 284.72C331.489 284.912 331.297 285.136 331.105 285.392C330.913 285.648 330.689 285.872 330.433 286.064C330.369 286.128 330.241 286.192 330.049 286.256C329.921 286.256 329.793 286.288 329.665 286.352C329.537 286.48 329.409 286.576 329.281 286.64C329.153 286.704 328.993 286.8 328.801 286.928C326.689 288.336 324.865 289.392 323.329 290.096C321.857 290.736 319.905 291.472 317.473 292.304C316.705 292.56 316.161 292.72 315.841 292.784C315.521 292.784 315.265 292.848 315.073 292.976C313.473 293.424 311.649 294.064 309.601 294.896C307.553 295.728 305.793 296.272 304.321 296.528C304.193 296.592 303.777 296.688 303.073 296.816C302.433 296.88 301.793 296.912 301.153 296.912ZM329.857 325.616C329.793 325.616 329.569 325.616 329.185 325.616C328.801 325.616 328.577 325.584 328.513 325.52C328.257 325.392 328.161 325.2 328.225 324.944C328.289 324.688 328.193 324.56 327.937 324.56C327.681 324.56 327.521 324.656 327.457 324.848C327.393 325.104 327.201 325.232 326.881 325.232H326.785C326.465 325.232 326.177 325.072 325.921 324.752C325.729 324.432 325.505 324.336 325.249 324.464C324.865 324.656 324.545 324.752 324.289 324.752C323.841 324.752 323.489 324.592 323.233 324.272C322.977 323.952 322.625 323.664 322.177 323.408C322.113 323.408 321.985 323.44 321.793 323.504C321.665 323.568 321.537 323.568 321.409 323.504C321.345 323.44 320.833 323.152 319.873 322.64C318.913 322.192 317.953 321.712 316.993 321.2C316.033 320.688 315.457 320.368 315.265 320.24C315.073 319.792 314.881 319.536 314.689 319.472C314.561 319.408 314.273 319.376 313.825 319.376C313.569 319.184 313.217 318.96 312.769 318.704C312.385 318.512 312.129 318.256 312.001 317.936C311.169 317.616 310.433 317.232 309.793 316.784C309.153 316.336 308.481 315.824 307.777 315.248C307.649 315.12 307.489 315.024 307.297 314.96C307.105 314.896 306.945 314.8 306.817 314.672L304.225 312.752C304.097 312.368 303.617 311.952 302.785 311.504C301.953 310.992 301.377 310.512 301.057 310.064C300.993 310 300.961 309.936 300.961 309.872C300.961 309.552 300.801 309.392 300.481 309.392C300.289 309.392 300.097 309.392 299.905 309.392C299.713 309.392 299.617 309.264 299.617 309.008C299.425 308.56 298.945 308.048 298.177 307.472C297.409 306.832 296.705 306.192 296.065 305.552C295.425 304.912 295.201 304.368 295.393 303.92C295.137 303.856 294.881 303.824 294.625 303.824C294.369 303.824 294.177 303.728 294.049 303.536C293.793 303.024 293.473 302.608 293.089 302.288C292.897 302.16 292.705 301.968 292.513 301.712L292.033 302.672C291.777 303.056 291.521 303.504 291.265 304.016C291.009 304.528 290.721 305.072 290.401 305.648L289.537 307.376C289.473 307.568 289.377 307.664 289.249 307.664C289.185 307.6 289.089 307.568 288.961 307.568C289.089 307.824 289.153 308.048 289.153 308.24C289.153 308.752 288.865 309.296 288.289 309.872C287.457 311.792 286.689 313.616 285.985 315.344C285.281 317.072 284.737 318.672 284.353 320.144C284.225 320.656 284.033 320.912 283.777 320.912C283.329 320.912 283.105 320.432 283.105 319.472C283.105 318.576 283.457 317.168 284.161 315.248L284.065 315.344C284.001 315.344 283.777 315.408 283.393 315.536C283.009 315.664 282.753 315.696 282.625 315.632C281.793 315.632 281.377 315.344 281.377 314.768C281.377 313.232 281.697 311.632 282.337 309.968L284.833 303.44C284.961 303.248 285.025 303.056 285.025 302.864C285.089 302.672 285.153 302.48 285.217 302.288L285.313 302.192V302.096L285.697 300.08C285.825 299.504 285.889 298.992 285.889 298.544C285.953 298.096 285.985 297.552 285.985 296.912C285.985 296.72 286.081 296.592 286.273 296.528C286.273 296.08 286.305 295.664 286.369 295.28C286.433 294.832 286.465 294.384 286.465 293.936V293.456C286.401 293.392 286.369 293.264 286.369 293.072C286.369 292.944 286.337 292.816 286.273 292.688C286.273 292.56 286.273 292.432 286.273 292.304C286.273 292.24 286.273 292.208 286.273 292.208C286.337 292.144 286.369 292.08 286.369 292.016C286.497 291.248 286.721 290.544 287.041 289.904C287.425 289.264 287.841 289.104 288.289 289.424C288.417 289.488 288.641 289.872 288.961 290.576C289.345 291.28 289.665 291.792 289.921 292.112C290.177 292.752 290.497 293.36 290.881 293.936C291.265 294.448 291.585 295.024 291.841 295.664C292.033 295.984 292.129 296.24 292.129 296.432C292.129 296.56 292.353 296.688 292.801 296.816C294.657 293.488 296.513 290.32 298.369 287.312C300.289 284.24 302.081 281.872 303.745 280.208L304.033 280.016L304.321 279.536C304.321 279.536 304.385 279.504 304.513 279.44C304.641 279.376 304.737 279.408 304.801 279.536C304.801 279.6 304.737 279.728 304.609 279.92C304.545 280.112 304.513 280.24 304.513 280.304C304.705 280.624 304.929 280.656 305.185 280.4C305.249 280.272 305.249 279.984 305.185 279.536C305.121 279.088 305.121 278.864 305.185 278.864C305.313 278.8 305.377 278.8 305.377 278.864C305.441 278.928 305.505 278.96 305.569 278.96C305.697 278.96 305.761 278.864 305.761 278.672C305.761 278.48 305.793 278.352 305.857 278.288C306.561 278.032 307.201 277.904 307.777 277.904C308.097 277.904 308.545 278.064 309.121 278.384C309.761 278.704 310.081 279.152 310.081 279.728C310.081 280.048 309.921 280.432 309.601 280.88C309.537 280.944 309.473 281.072 309.409 281.264C309.345 281.392 309.249 281.52 309.121 281.648C309.057 281.712 308.993 281.744 308.929 281.744C308.929 281.68 308.865 281.68 308.737 281.744C308.673 281.808 308.577 281.84 308.449 281.84C308.385 281.776 308.289 281.744 308.161 281.744C308.033 281.744 308.001 281.84 308.065 282.032C308.193 282.224 308.225 282.352 308.161 282.416C308.097 282.48 308.033 282.48 307.969 282.416C307.905 282.352 307.809 282.384 307.681 282.512C307.617 282.576 307.649 282.64 307.777 282.704C307.969 282.704 308.001 282.768 307.873 282.896C307.489 283.28 307.009 283.696 306.433 284.144C305.921 284.528 305.409 284.912 304.897 285.296C304.833 285.36 304.769 285.36 304.705 285.296C304.641 285.168 304.577 285.136 304.513 285.2L303.841 286.16C303.201 286.8 302.561 287.472 301.921 288.176C301.281 288.88 300.609 289.68 299.905 290.576C299.713 290.96 299.489 291.312 299.233 291.632C298.977 291.952 298.625 292.08 298.177 292.016C298.177 292.08 298.241 292.176 298.369 292.304C298.497 292.368 298.497 292.496 298.369 292.688C296.961 294.608 295.649 296.592 294.433 298.64L296.449 301.136C296.641 301.392 296.737 301.68 296.737 302C296.737 302.256 296.801 302.416 296.929 302.48C297.057 302.48 297.153 302.448 297.217 302.384C297.345 302.32 297.441 302.288 297.505 302.288C297.697 302.288 297.857 302.448 297.985 302.768C298.177 303.024 298.369 303.248 298.561 303.44C298.817 303.696 299.073 303.952 299.329 304.208C299.649 304.464 299.969 304.752 300.289 305.072V305.168C300.545 305.36 300.961 305.712 301.537 306.224C302.113 306.736 302.657 307.248 303.169 307.76C303.681 308.208 303.969 308.56 304.033 308.816C304.161 309.072 304.353 309.232 304.609 309.296C304.865 309.36 305.089 309.456 305.281 309.584C305.793 309.968 306.305 310.352 306.817 310.736C307.393 311.12 307.937 311.536 308.449 311.984C308.641 312.112 308.705 312.24 308.641 312.368C308.641 312.496 308.673 312.624 308.737 312.752C308.865 312.816 309.089 312.912 309.409 313.04C309.793 313.104 310.081 313.2 310.273 313.328C311.745 314.288 313.217 315.216 314.689 316.112C316.161 317.072 317.697 317.968 319.297 318.8C320.961 319.632 322.657 320.368 324.385 321.008C326.113 321.648 327.937 321.968 329.857 321.968C331.393 321.968 332.865 321.68 334.273 321.104C335.745 320.528 336.481 319.472 336.481 317.936C336.481 317.424 336.385 316.88 336.193 316.304C336.129 315.984 336.001 315.632 335.809 315.248C335.681 314.864 335.457 314.576 335.137 314.384C334.945 314 334.593 313.744 334.081 313.616C333.761 313.296 333.473 312.976 333.217 312.656C332.961 312.272 332.577 312.112 332.065 312.176C331.873 311.984 331.777 311.792 331.777 311.6C331.777 311.344 331.873 311.152 332.065 311.024C332.321 310.832 332.609 310.8 332.929 310.928C333.377 311.184 333.729 311.536 333.985 311.984C334.305 312.368 334.721 312.592 335.233 312.656L335.713 313.136C335.905 313.456 336.097 313.712 336.289 313.904C336.545 314.096 336.769 314.352 336.961 314.672C337.153 314.928 337.345 315.28 337.537 315.728C337.793 316.24 337.953 316.656 338.017 316.976C338.145 317.232 338.177 317.488 338.113 317.744C338.113 318 338.209 318.288 338.401 318.608C338.529 320.592 337.889 322.192 336.481 323.408C335.073 324.688 333.441 325.392 331.585 325.52C331.393 325.392 331.201 325.296 331.009 325.232C330.881 325.168 330.753 325.136 330.625 325.136C330.433 325.136 330.177 325.296 329.857 325.616ZM285.409 312.176C285.537 312.24 285.601 312.24 285.601 312.176C285.665 312.048 285.697 311.984 285.697 311.984C285.825 311.792 285.889 311.6 285.889 311.408C285.889 311.152 285.921 310.928 285.985 310.736C287.137 307.856 288.609 304.72 290.401 301.328C290.529 301.072 290.657 301.008 290.785 301.136C290.977 301.2 291.105 301.168 291.169 301.04C291.297 300.912 291.329 300.752 291.265 300.56C291.265 300.368 291.265 300.208 291.265 300.08C291.201 299.952 291.105 299.856 290.977 299.792C290.849 299.728 290.753 299.632 290.689 299.504C290.433 298.8 290.081 298.352 289.633 298.16C289.249 297.904 288.961 297.52 288.769 297.008C288.513 296.432 288.257 296.016 288.001 295.76C287.809 295.44 287.553 295.056 287.233 294.608L286.945 297.872C286.881 298.512 286.785 299.248 286.657 300.08C286.593 300.912 286.433 301.68 286.177 302.384C286.113 302.576 286.081 302.864 286.081 303.248V304.304C286.081 304.432 286.049 304.592 285.985 304.784C285.985 304.976 285.985 305.168 285.985 305.36L285.793 307.28C285.729 307.92 285.633 308.592 285.505 309.296C285.377 309.936 285.313 310.544 285.313 311.12C285.313 311.632 285.345 311.984 285.409 312.176Z" fill="#14254E"/>
    </g>
    <defs>
        <filter id="filter0_d_0_1" x="40" y="40" width="522.001" height="522" filterUnits="userSpaceOnUse" color-interpolation-filters="sRGB">
            <feFlood flood-opacity="0" result="BackgroundImageFix"/>
            <feColorMatrix in="SourceAlpha" type="matrix" values="0 0 0 0 0 0 0 0 0 0 0 0 0 0 0 0 0 0 127 0" result="hardAlpha"/>
            <feMorphology radius="1" operator="dilate" in="SourceAlpha" result="effect1_dropShadow_0_1"/>
            <feOffset dy="4"/>
            <feGaussianBlur stdDeviation="2"/>
            <feComposite in2="hardAlpha" operator="out"/>
            <feColorMatrix type="matrix" values="0 0 0 0 0 0 0 0 0 0 0 0 0 0 0 0 0 0 0.25 0"/>
            <feBlend mode="normal" in2="BackgroundImageFix" result="effect1_dropShadow_0_1"/>
            <feBlend mode="normal" in="SourceGraphic" in2="effect1_dropShadow_0_1" result="shape"/>
        </filter>
        <filter id="filter1_d_0_1" x="257.881" y="266.304" width="89.712" height="75.312" filterUnits="userSpaceOnUse" color-interpolation-filters="sRGB">
            <feFlood flood-opacity="0" result="BackgroundImageFix"/>
            <feColorMatrix in="SourceAlpha" type="matrix" values="0 0 0 0 0 0 0 0 0 0 0 0 0 0 0 0 0 0 127 0" result="hardAlpha"/>
            <feOffset dy="7"/>
            <feGaussianBlur stdDeviation="4.5"/>
            <feComposite in2="hardAlpha" operator="out"/>
            <feColorMatrix type="matrix" values="0 0 0 0 0 0 0 0 0 0 0 0 0 0 0 0 0 0 0.25 0"/>
            <feBlend mode="normal" in2="BackgroundImageFix" result="effect1_dropShadow_0_1"/>
            <feBlend mode="normal" in="SourceGraphic" in2="effect1_dropShadow_0_1" result="shape"/>
        </filter>
    </defs>
</svg>
